<svg width="197" height="48" viewBox="0 0 197 48" fill="none" xmlns="http://www.w3.org/2000/svg">
<path d="M182.163 46.733V44.6214H186.17V29.9211H182.163V27.8095H192.749V29.9211H188.715V44.6214H192.749V46.733H182.163Z" fill="white"/>
<path d="M174.77 40.8042V27.8095H177.287V41.1561C177.287 42.618 176.981 43.7911 176.367 44.6755C175.771 45.5599 174.968 46.2096 173.958 46.6247C172.965 47.0218 171.873 47.2203 170.682 47.2203C169.455 47.2203 168.345 47.0127 167.352 46.5976C166.359 46.1825 165.574 45.5328 164.997 44.6484C164.419 43.746 164.13 42.5819 164.13 41.1561V27.8095H166.648V40.8042C166.648 41.9051 166.829 42.7624 167.19 43.376C167.569 43.9716 168.065 44.3958 168.679 44.6484C169.292 44.8831 169.96 45.0004 170.682 45.0004C171.422 45.0004 172.099 44.874 172.712 44.6214C173.326 44.3687 173.822 43.9446 174.201 43.349C174.58 42.7353 174.77 41.8871 174.77 40.8042Z" fill="white"/>
<path d="M153.973 27.3764C156.301 27.3764 158.106 28.2517 159.387 30.0024C160.686 31.735 161.336 34.1715 161.336 37.3119C161.336 40.4523 160.686 42.8888 159.387 44.6214C158.106 46.354 156.301 47.2203 153.973 47.2203C151.644 47.2203 149.83 46.354 148.531 44.6214C147.25 42.8888 146.609 40.4523 146.609 37.3119C146.609 34.1715 147.25 31.735 148.531 30.0024C149.83 28.2517 151.644 27.3764 153.973 27.3764ZM153.973 29.5963C152.493 29.5963 151.328 30.2822 150.48 31.6538C149.65 33.0074 149.235 34.8935 149.235 37.3119C149.235 39.7123 149.65 41.5983 150.48 42.97C151.328 44.3236 152.493 45.0004 153.973 45.0004C155.471 45.0004 156.635 44.3236 157.465 42.97C158.295 41.5983 158.71 39.7123 158.71 37.3119C158.71 34.8935 158.295 33.0074 157.465 31.6538C156.635 30.2822 155.471 29.5963 153.973 29.5963Z" fill="white"/>
<path d="M142.165 46.733L140.487 41.0749H133.962L132.284 46.733H129.685L135.668 27.8095H138.835L144.791 46.733H142.165ZM134.585 38.9633H139.864L137.211 30.0836L134.585 38.9633Z" fill="white"/>
<path d="M120.313 46.733H114.195V27.8095H120.313C121.92 27.8095 123.255 28.2156 124.32 29.0278C125.385 29.8399 126.179 30.9589 126.702 32.3847C127.244 33.7925 127.514 35.4168 127.514 37.2577C127.514 39.0986 127.244 40.732 126.702 42.1578C126.179 43.5836 125.385 44.7026 124.32 45.5147C123.255 46.3269 121.92 46.733 120.313 46.733ZM116.713 30.0294V44.5131H119.88C121.649 44.5131 122.921 43.8724 123.697 42.5909C124.491 41.2915 124.888 39.5228 124.888 37.2848C124.888 35.0288 124.491 33.26 123.697 31.9786C122.921 30.6792 121.649 30.0294 119.88 30.0294H116.713Z" fill="white"/>
<path d="M108.695 46.733L107.016 41.0749H100.492L98.8134 46.733H96.2145L102.197 27.8095H105.365L111.321 46.733H108.695ZM101.115 38.9633H106.394L103.741 30.0836L101.115 38.9633Z" fill="white"/>
<path d="M91.9604 46.733L90.2819 41.0749H83.7575L82.079 46.733H79.4801L85.4631 27.8095H88.6305L94.5864 46.733H91.9604ZM84.3802 38.9633H89.6593L87.0062 30.0836L84.3802 38.9633Z" fill="white"/>
<path d="M76.8765 33.2781H74.44C74.4039 32.1953 74.061 31.3019 73.4113 30.598C72.7616 29.8761 71.7779 29.5151 70.4604 29.5151C69.1609 29.5151 68.1683 29.8039 67.4825 30.3814C66.8147 30.959 66.4808 31.6719 66.4808 32.5201C66.4808 34.0362 67.3381 34.9927 69.0527 35.3898L72.924 36.2832C74.4039 36.6261 75.5229 37.2487 76.2809 38.1511C77.039 39.0536 77.418 40.1184 77.418 41.3457C77.418 42.591 77.1292 43.6558 76.5517 44.5402C75.9922 45.4065 75.2071 46.0743 74.1964 46.5435C73.2037 46.9947 72.0396 47.2203 70.7041 47.2203C68.3578 47.2203 66.562 46.6428 65.3167 45.4877C64.0894 44.3146 63.4577 42.7173 63.4216 40.6959H65.8581C65.8762 41.9593 66.3003 42.9881 67.1305 43.7822C67.9607 44.5763 69.17 44.9734 70.7582 44.9734C72.184 44.9734 73.2218 44.6665 73.8715 44.0529C74.5393 43.4393 74.8732 42.6542 74.8732 41.6976C74.8732 40.8493 74.6386 40.1816 74.1693 39.6943C73.7181 39.207 73.0233 38.855 72.0847 38.6384L68.1593 37.718C66.7876 37.3931 65.7408 36.8156 65.0189 35.9854C64.297 35.1371 63.936 34.0632 63.936 32.7638C63.936 31.6989 64.2067 30.7694 64.7482 29.9753C65.2896 29.1632 66.0476 28.5315 67.0222 28.0803C68.0149 27.611 69.188 27.3764 70.5416 27.3764C71.8591 27.3764 72.9872 27.62 73.9257 28.1073C74.8822 28.5946 75.6132 29.2624 76.1185 30.1107C76.6239 30.9409 76.8765 31.8794 76.8765 32.9262V33.2781Z" fill="white"/>
<path d="M152.945 14.8103L149.48 5.25382V20.2248H147.341V1.30127H150.157L154.001 12.1843L157.845 1.30127H160.607V20.2248H158.468V5.22675L155.057 14.8103H152.945Z" fill="white"/>
<path d="M131.958 20.2248V18.1131H135.965V3.4129H131.958V1.30127H142.544V3.4129H138.51V18.1131H142.544V20.2248H131.958Z" fill="white"/>
<path d="M127.081 6.76991H124.645C124.609 5.68702 124.266 4.79364 123.616 4.08976C122.967 3.36783 121.983 3.00687 120.665 3.00687C119.366 3.00687 118.373 3.29564 117.687 3.87318C117.02 4.45072 116.686 5.16363 116.686 6.01189C116.686 7.52794 117.543 8.48449 119.258 8.88155L123.129 9.77493C124.609 10.1178 125.728 10.7405 126.486 11.6429C127.244 12.5453 127.623 13.6102 127.623 14.8374C127.623 16.0828 127.334 17.1476 126.757 18.032C126.197 18.8983 125.412 19.5661 124.401 20.0353C123.409 20.4865 122.245 20.7121 120.909 20.7121C118.563 20.7121 116.767 20.1346 115.522 18.9795C114.294 17.8064 113.663 16.2091 113.627 14.1877H116.063C116.081 15.4511 116.505 16.4798 117.335 17.2739C118.166 18.0681 119.375 18.4651 120.963 18.4651C122.389 18.4651 123.427 18.1583 124.076 17.5447C124.744 16.931 125.078 16.1459 125.078 15.1894C125.078 14.3411 124.844 13.6733 124.374 13.186C123.923 12.6987 123.228 12.3468 122.29 12.1302L118.364 11.2098C116.993 10.8849 115.946 10.3074 115.224 9.47714C114.502 8.62887 114.141 7.55501 114.141 6.25554C114.141 5.1907 114.412 4.26122 114.953 3.4671C115.495 2.65493 116.253 2.02325 117.227 1.57204C118.22 1.10279 119.393 0.868164 120.747 0.868164C122.064 0.868164 123.192 1.11181 124.131 1.59911C125.087 2.08642 125.818 2.7542 126.323 3.60246C126.829 4.43268 127.081 5.37118 127.081 6.41797V6.76991Z" fill="white"/>
<path d="M110.347 6.76991H107.911C107.875 5.68702 107.532 4.79364 106.882 4.08976C106.232 3.36783 105.249 3.00687 103.931 3.00687C102.632 3.00687 101.639 3.29564 100.953 3.87318C100.285 4.45072 99.9514 5.16363 99.9514 6.01189C99.9514 7.52794 100.809 8.48449 102.523 8.88155L106.395 9.77493C107.875 10.1178 108.994 10.7405 109.752 11.6429C110.51 12.5453 110.889 13.6102 110.889 14.8374C110.889 16.0828 110.6 17.1476 110.022 18.032C109.463 18.8983 108.678 19.5661 107.667 20.0353C106.674 20.4865 105.51 20.7121 104.175 20.7121C101.828 20.7121 100.033 20.1346 98.7873 18.9795C97.56 17.8064 96.9283 16.2091 96.8922 14.1877H99.3287C99.3468 15.4511 99.7709 16.4798 100.601 17.2739C101.431 18.0681 102.641 18.4651 104.229 18.4651C105.655 18.4651 106.692 18.1583 107.342 17.5447C108.01 16.931 108.344 16.1459 108.344 15.1894C108.344 14.3411 108.109 13.6733 107.64 13.186C107.189 12.6987 106.494 12.3468 105.555 12.1302L101.63 11.2098C100.258 10.8849 99.2114 10.3074 98.4895 9.47714C97.7675 8.62887 97.4066 7.55501 97.4066 6.25554C97.4066 5.1907 97.6773 4.26122 98.2188 3.4671C98.7602 2.65493 99.5182 2.02325 100.493 1.57204C101.485 1.10279 102.659 0.868164 104.012 0.868164C105.33 0.868164 106.458 1.11181 107.396 1.59911C108.353 2.08642 109.084 2.7542 109.589 3.60246C110.094 4.43268 110.347 5.37118 110.347 6.41797V6.76991Z" fill="white"/>
<path d="M91.9604 20.2248L90.2819 14.5667H83.7575L82.079 20.2248H79.4801L85.4631 1.30127H88.6305L94.5864 20.2248H91.9604ZM84.3802 12.455H89.6593L87.0062 3.57534L84.3802 12.455Z" fill="white"/>
<path d="M74.2774 1.30127H76.6057V20.2248H73.7901L66.3453 5.09138H66.3182V20.2248H63.99V1.30127H66.7243L74.2504 16.57H74.2774V1.30127Z" fill="white"/>
<path d="M47 0H1.93672L10.037 8.10045L38.899 36.9621V38.8988H35.7841L8.10104 11.2146L0 3.11346V38.8988V47H8.10104V38.8988V22.6713L24.3283 38.8988L32.4293 47H47V38.8988V33.6065L38.899 25.5054L21.4936 8.10045H47V0Z" fill="white"/>
</svg>
